<svg width="19" height="36" viewBox="0 0 19 36" fill="none" xmlns="http://www.w3.org/2000/svg">
<path opacity="0.8" fill-rule="evenodd" clip-rule="evenodd" d="M10.3284 1.11474C10.1463 0.210411 8.85366 0.21041 8.67159 1.11474C8.54676 1.73479 7.80999 2.00296 7.3158 1.60821C6.59504 1.03248 5.60479 1.8634 6.04661 2.67319C6.34954 3.22842 5.95751 3.90743 5.3252 3.9227C4.403 3.94496 4.17852 5.218 5.0375 5.55434C5.62646 5.78495 5.76261 6.55709 5.28804 6.97523C4.5959 7.58506 5.24224 8.70456 6.11645 8.41007C6.71585 8.20815 7.31647 8.71213 7.2217 9.33749C7.20084 9.47515 7.2108 9.60211 7.24441 9.71575C3.08654 10.7282 0 14.4768 0 18.9464V25.027C0 26.0025 0.158592 26.9715 0.469569 27.8961L2 32.4464V32.5V34.5V36H3.5H15.5H17V34.5V32.5V32.4464L18.5381 27.8319C18.844 26.9142 19 25.9532 19 24.9859V18.9464C19 14.4768 15.9135 10.7282 11.7556 9.71575C11.7892 9.60211 11.7992 9.47515 11.7783 9.33749C11.6835 8.71213 12.2842 8.20815 12.8836 8.41007C13.7578 8.70456 14.4041 7.58506 13.712 6.97523C13.2374 6.55709 13.3735 5.78495 13.9625 5.55434C14.8215 5.218 14.597 3.94496 13.6748 3.9227C13.0425 3.90743 12.6505 3.22842 12.9534 2.67319C13.3952 1.8634 12.405 1.03248 11.6842 1.60821C11.19 2.00296 10.4532 1.73479 10.3284 1.11474ZM17.1151 27.3576L15.9189 30.9464H3.07806L1.89131 27.4179C1.63216 26.6474 1.5 25.8399 1.5 25.027V18.9464C1.5 14.5281 5.08172 10.9464 9.5 10.9464C13.9183 10.9464 17.5 14.5281 17.5 18.9464V24.9859C17.5 25.792 17.37 26.5928 17.1151 27.3576ZM5 34.5V32.5H6V34.5H5ZM9 34.5V32.5H10V34.5H9ZM14 34.5V32.5H13V34.5H14ZM16 18.9464C16 20.3271 14.9255 21.4464 13.6 21.4464C12.2745 21.4464 10 19.5714 10 19.5714C10 19.5714 12.2745 16.4464 13.6 16.4464C14.9255 16.4464 16 17.5656 16 18.9464ZM5.4 21.4464C4.07452 21.4464 3 20.3271 3 18.9464C3 17.5656 4.07452 16.4464 5.4 16.4464C6.72548 16.4464 9 19.5714 9 19.5714C9 19.5714 6.72548 21.4464 5.4 21.4464ZM12 25.9464C12 27.3271 10.8807 28.4464 9.5 28.4464C8.11929 28.4464 7 27.3271 7 25.9464C7 24.5657 8.11929 23.4464 9.5 23.4464C10.8807 23.4464 12 24.5657 12 25.9464Z" fill="#4833C3"/>
</svg>
