<svg width="21" height="22" viewBox="0 0 21 22" fill="none" xmlns="http://www.w3.org/2000/svg">
<path opacity="0.8" d="M1 10.326V19.5C1 20.0523 1.44772 20.5 2 20.5H6.06255C6.53923 20.5 6.94965 20.1635 7.04313 19.6961L8.4506 12.6587C8.87934 10.5151 11.9442 10.5151 12.3729 12.6587L13.7804 19.6961C13.8739 20.1635 14.2843 20.5 14.761 20.5H18.8235C19.3758 20.5 19.8235 20.0523 19.8235 19.5V10.326C19.8235 10.0608 19.7182 9.80641 19.5306 9.61887L11.1189 1.20711C10.7283 0.816582 10.0952 0.816583 9.70466 1.20711L1.29289 9.61887C1.10536 9.80641 1 10.0608 1 10.326Z" stroke="#4833C3" stroke-width="1.5"/>
</svg>
